<svg xmlns="http://www.w3.org/2000/svg" id="Layer_1" data-name="Layer 1" viewBox="0 0 469 281"><defs><style>.cls-1{fill:#bbb;}.cls-2{fill:#fff;}</style></defs><title>fronius logo key4us</title><g id="Layer_1-2" data-name="Layer_1"><g id="_105553228576352" data-name=" 105553228576352"><path class="cls-1" d="M463.17,143.86C462.5,227.41,9.46,228.5,5.83,145.29v-2C9.89,60.27,463.25,60.39,463.17,143.86Z"></path><path class="cls-2" d="M275.25,166.65l18.12-39h13.46l-18.22,39Z"></path><path class="cls-2" d="M295.48,123.27l4.76-10.2h13.45l-4.78,10.2Z"></path><path class="cls-2" d="M275.46,127.85H232.92l-18.09,38.8h13.34l13.33-28.6h23.94l.57.09.48.3.3.46.18.57-.18.57-12.4,26.61h13.33L281.54,137h-.09l.3-.67.18-.66.09-.57.09-.78-.18-1.33-.39-1.14-.66-1.15-.75-.95-1-.76-1.14-.57-1.23-.48Z"></path><path class="cls-2" d="M182.89,138h-.39v.09H182l-.09.09h-.1v.09h-.27l-.12.09h-.09v.12h-.09l-.09.09h-.09v.09H181v.09h-.12v.1h-.09v.11h-.09V139h-.09v.09l-.09.09v.19h-.1v.09h-.11v.11l-6.86,14.88h-.09v.36h-.1v.66h.1v.3h.09V156h.11v.11h.09v.09h.09v.09h.19v.1h.39v.09h.18l.09.09h22.31l.78-.18.66-.28.57-.6.48-.54,7-14.87.09-.39v-.3l-.09-.57-.3-.48-.46-.28L205,138Zm38.23-1-10.39,22.21-.87,1.63-1.14,1.42-1.15,1.23-1.53,1-1.51,1-1.62.57-1.72.48-1.9.09h-34.8l-1.35-.09-1.23-.39-1.15-.57-1.71-1.72-.58-1.14-.36-1.24-.12-1.33.12-1.35.46-1.32L169,135.28l.85-1.72,1.05-1.51L172,130.8l1.41-1,1.54-.87,1.71-.67,1.91-.29,2.1-.19h34.5l1.35.19,1.24.38,1.05.58.94.87.87.84.57,1.15.39,1.23.09,1.24V135l-.21.67-.36,1.32Z"></path><path class="cls-2" d="M123.67,135.1,109,166.65h13.43l12.49-26.79.3-.48.27-.37.66-.69L137,138l1.05-.09h26.68l4.79-10.21H135.68l-2,.09-1.71.39-1.81.67-1.63.84-1.44,1L125.78,132l-1.15,1.44-1,1.63Z"></path><path class="cls-2" d="M91.55,137.87h28l4.78-10.21H89l-1.81.09-1.83.48-1.72.58-1.6,1-1.44,1-1.33,1.35-1.14,1.32-1,1.63-9.91,21.34H62.47l16.31-35.16.48-.66.48-.6.46-.55.69-.39.57-.38.76-.28.75-.21h45.67L133.4,108H79.84l-1.81.1-1.83.45-1.72.6-1.6.94-1.44,1L70.2,112.4l-1.14,1.44-1,1.6L44.28,166.65H75.83l12.68-26.79L89,139l.66-.69,1-.36.94-.09Z"></path><path class="cls-2" d="M367.82,127.37l-14.57,31.75v.09l-.87,1.63-1.15,1.33L350,163.49l-1.42,1-1.62,1-1.63.57-1.71.48-1.9.09H306.53l-1.33-.09-1.23-.39-1.06-.57-1.05-.85-.76-1-.57-1.14-.39-1.15-.18-1.44.18-1.33.39-1.32,10.57-22.52,3.43-7.52h13.34l-12.28,27v.12h-.09v.18h-.1v1h.1v.09h.09v.18h.09v.1h.09v.09H316v.11h.09v.09h.27l.09.09h22.79l.78-.09.76-.3.57-.48.39-.66,12.58-27.46h13.52Z"></path><path class="cls-2" d="M380.61,142.05h29.75l1.32.1,1.24.38,1.05.58L415,144l.75,1,.57,1.15.48,1.24.09,1.32-.09.78v.66l-.3.66-.27.67-.76,1.53-2.85,6.2-.87,1.63-1.15,1.41-1.23,1.33-1.54,1-1.62,1-1.6.57-1.83.48-1.9.09H355.63l4.76-10.3H398.8l.69-.09.66-.29.48-.49.37-.66,1.35-2.77H372.79l-1.44-.09-1.15-.48-1.14-.57-.94-.76-.87-1.05-.57-1-.37-1.24-.11-1.32v-.76l.11-.78.28-.66.3-.76,3.61-7.73.85-1.72,1-1.51,1.14-1.25,1.44-1,1.63-.78,1.72-.57,1.9-.37,2.19-.21h45l-4.85,10.3H384.62l-1,.09-.76.3-.48.48-.48.66-1.33,2.86Z"></path></g></g></svg>