<svg xmlns="http://www.w3.org/2000/svg" viewBox="0 0 469.56 281.99"><defs><style>.a{fill:#bbb;fill-rule:evenodd;}</style></defs><path class="a" d="M299.3,142.17c0,4.34,1.74,7,5.43,7a11,11,0,0,0,3.55-.69l.8-.29,3.39-21.67-1.54-.12c-.23,0-.48,0-.82,0-6.8,0-10.81,6.41-10.81,15.75m-11.59,1.17c0-13.69,8.45-23.56,19.64-23.56a24.82,24.82,0,0,1,8.72,1.7l.38.14L324.8,120,319,156.65h-11l.62-3.71-2.62,1.5c-3.89,2.23-5.63,2.79-7.86,2.79C291.63,157.23,287.71,152.44,287.71,143.34Zm-56.6-30.44,12.12-4-1.94,11.92h9.31l-.94,6h-9.3l-2.62,16.77a13.15,13.15,0,0,0-.22,2.14c0,2.81,1.73,4.12,4.71,4.12a21.62,21.62,0,0,0,3.84-.38l-.91,5.54c-4.39,1.62-7.06,2.21-9.76,2.21-7,0-9.83-2.51-9.83-7.79a26.77,26.77,0,0,1,.43-4.39l2.86-18.22H225l.94-6h3.85Zm36.05,44.33c-10.89,0-16.45-5.06-16.45-14.62,0-13.79,8.93-22.91,22.48-22.91,8,0,11.93,3.14,11.93,8.74,0,8.14-6.55,12.73-20.07,12.73h-2.74l-.07,1.36c0,.29,0,.55,0,.81,0,5.13,2.67,7.32,8.42,7.32a45.22,45.22,0,0,0,9.74-1l-.86,5.34C274.31,156.69,271.24,157.23,267.16,157.23Zm-65,0c-10.88,0-16.44-5.06-16.44-14.62,0-13.79,8.93-22.91,22.47-22.91,8,0,11.94,3.14,11.94,8.74,0,8.14-6.56,12.73-20.08,12.73h-2.74l-.06,1.36c0,.29,0,.55,0,.81,0,5.13,2.67,7.32,8.42,7.32a45.3,45.3,0,0,0,9.75-1l-.86,5.34C209.31,156.69,206.25,157.23,202.16,157.23Zm3.71-32.41c-4.19,0-6.67,3.53-7.7,9.57l-.29,1.71,1.74,0c6.6-.17,10.16-2.48,10.16-7.54C209.78,126.19,208.26,124.82,205.87,124.82Zm-60.64,18.81c0-13.83,8.58-23.78,20.07-23.78a27.83,27.83,0,0,1,8.79,1.66l.32.1,8.5-1.33-6.1,38.64c-1.61,10-6.91,14.15-19,14.15a71.88,71.88,0,0,1-9-1.2c-1.53-.27-3.29-.61-4.78-.9l7.33-5.18c1.22.1,2.37.13,3.65.13,7.25,0,9.52-1.93,10.66-8.89l.55-3.87-2.46,1.28c-4.55,2.38-6.3,3-8.24,3C149.23,157.45,145.23,152.52,145.23,143.63Zm11.58-1.31c0,4.36,1.91,7.11,5.58,7.11a11.35,11.35,0,0,0,3.78-.77l.79-.29,3.46-21.8-1.6-.07H168C161,126.49,156.81,133,156.81,142.32Zm114.05-17.5c-4.18,0-6.66,3.53-7.69,9.57l-.3,1.71,1.74,0c6.6-.17,10.16-2.48,10.16-7.54C274.77,126.19,273.25,124.82,270.86,124.82Zm-151-1,2.47-1.2c4.84-2.34,6.91-3,9.36-3,6,0,9.24,3.14,9.24,8.59a36.37,36.37,0,0,1-.43,5.49l-3.61,22.87h-11.5l3.58-23a12.16,12.16,0,0,0,.23-2.29c0-2.67-1.73-4-4.56-4a12.48,12.48,0,0,0-4.33.77l-.82.28L115,156.65H103.52l5-31.93,11.81-3.87Zm243.41,7.48-4,25.31H347.81l3.65-23c.07-.81.15-1.52.15-2.27,0-2.67-1.73-4-4.56-4a12.48,12.48,0,0,0-4.33.77l-.82.28-4.47,28.17H325.94l5-31.94,11.78-3.88-.49,3,2.49-1.2c5-2.45,6.84-3,9.71-3,4.15,0,6.12.82,7.68,2.84l.68.88,1-.45c5.33-2.31,9.18-3.41,11.77-3.41,6.35,0,9.61,3.08,9.61,8.66a35.93,35.93,0,0,1-.43,5.41l-3.68,23h-11.5l3.65-23a13.72,13.72,0,0,0,.23-2.29c0-2.65-1.71-4-4.57-4a12.78,12.78,0,0,0-4.48.89l-.95.33v1ZM96.13,156.65H84.35L91.27,113l12.43-4.1Z"></path></svg>