<svg xmlns="http://www.w3.org/2000/svg" viewBox="0 0 106.41 108.41"><defs><style>.a{fill:#0780b1;}</style></defs><path class="a" d="M98,97.61H8.37a2,2,0,0,1-1.7-3l19.14-30.9a2,2,0,0,1,1.7-.95H78.9a2,2,0,0,1,1.7.95l19.14,30.9a2,2,0,0,1-1.7,3ZM12,93.61H94.45L77.79,66.71H28.62Z"></path><path class="a" d="M53.21,42.66a12,12,0,1,1,12-12A12,12,0,0,1,53.21,42.66Zm0-20a8,8,0,1,0,8,8A8,8,0,0,0,53.21,22.67Z"></path><path class="a" d="M53.21,14.49a2,2,0,0,1-2-2V4.54a2,2,0,1,1,4,0v8A2,2,0,0,1,53.21,14.49Z"></path><path class="a" d="M53.21,58.8a2,2,0,0,1-2-2v-8a2,2,0,0,1,4,0v8A2,2,0,0,1,53.21,58.8Z"></path><path class="a" d="M66.06,19.82a2,2,0,0,1-1.41-3.42l5.62-5.62a2,2,0,1,1,2.83,2.83l-5.63,5.62A2,2,0,0,1,66.06,19.82Z"></path><path class="a" d="M34.73,51.14a2,2,0,0,1-1.42-3.41l5.63-5.62a2,2,0,1,1,2.83,2.83l-5.63,5.62A2,2,0,0,1,34.73,51.14Z"></path><path class="a" d="M79.34,32.67h-8a2,2,0,0,1,0-4h8a2,2,0,0,1,0,4Z"></path><path class="a" d="M35,32.67h-8a2,2,0,0,1,0-4h8a2,2,0,0,1,0,4Z"></path><path class="a" d="M71.68,51.14a2,2,0,0,1-1.41-.58l-5.62-5.63a2,2,0,1,1,2.82-2.82l5.63,5.62a2,2,0,0,1-1.42,3.41Z"></path><path class="a" d="M40.35,19.82a2,2,0,0,1-1.41-.59l-5.63-5.62a2,2,0,0,1,2.83-2.83l5.63,5.62a2,2,0,0,1-1.42,3.42Z"></path><path class="a" d="M27.52,105.87a2,2,0,0,1-2-2V95.61a2,2,0,0,1,4,0v8.26A2,2,0,0,1,27.52,105.87Z"></path><path class="a" d="M78.89,105.87a2,2,0,0,1-2-2V95.61a2,2,0,0,1,4,0v8.26A2,2,0,0,1,78.89,105.87Z"></path><path class="a" d="M35.48,105.87H19.57a2,2,0,1,1,0-4H35.48a2,2,0,0,1,0,4Z"></path><path class="a" d="M86.84,105.87H70.94a2,2,0,0,1,0-4h15.9a2,2,0,0,1,0,4Z"></path><path class="a" d="M88.47,82.16H17.94a2,2,0,0,1,0-4H88.47a2,2,0,0,1,0,4Z"></path><path class="a" d="M38.26,97.61a1.81,1.81,0,0,1-.4,0,2,2,0,0,1-1.56-2.36l6.38-30.9a2,2,0,1,1,3.92.81L40.22,96A2,2,0,0,1,38.26,97.61Z"></path><path class="a" d="M68.15,97.61a2,2,0,0,1-2-1.59l-6.38-30.9a2,2,0,1,1,3.92-.81l6.38,30.9a2,2,0,0,1-1.55,2.36A2,2,0,0,1,68.15,97.61Z"></path></svg>