<svg xmlns="http://www.w3.org/2000/svg" viewBox="0 0 180 180"><defs><style>.a{fill:#1581b3;}</style></defs><path class="a" d="M43.7,147.74a2.27,2.27,0,0,1-2.1-3.12L63.46,90.25a2.25,2.25,0,0,1,2.1-1.42h78.85a2.27,2.27,0,0,1,2.1,3.12l-7.28,18.12-.06.19,0,0-14.49,36a2.26,2.26,0,0,1-2.11,1.42ZM121,143.2l5.46-13.58H105.09L99.63,143.2Zm-26.28,0,5.46-13.58H78.81L73.35,143.2Zm-26.28,0,5.46-13.58H52.53L47.07,143.2Zm59.84-18.12,5.46-13.58H112.37l-5.46,13.58Zm-26.28,0,5.46-13.58H86.09l-5.46,13.58Zm-26.27,0,5.45-13.58H59.81l-5.46,13.58ZM135.58,107,141,93.37H119.66L114.2,107Zm-26.28,0,5.46-13.58H93.38L87.92,107ZM83,107l5.46-13.58H67.1L61.64,107Z"></path><path class="a" d="M142.35,160.36a2.27,2.27,0,1,1,0-4.54h18.39a5.07,5.07,0,0,0,4.84-6.57l-12.39-40.06L134.35,156a6.86,6.86,0,0,1-6.4,4.32H31.78A6.82,6.82,0,0,1,25.44,151L53.77,80.5a6.82,6.82,0,0,1,6.35-4.29h96.12a6.89,6.89,0,0,1,6.4,9.47l-6.77,16.82,14,45.4a9.6,9.6,0,0,1-9.18,12.46ZM60.12,80.75A2.3,2.3,0,0,0,58,82.19L29.66,152.67a2.29,2.29,0,0,0,2.12,3.15H128a2.35,2.35,0,0,0,2.18-1.47L158.42,84a2.35,2.35,0,0,0-2.18-3.23Z"></path><path class="a" d="M45.48,83.21a2.29,2.29,0,0,1-1.17-.32A20.82,20.82,0,1,1,75.88,65.06a20.27,20.27,0,0,1-.43,4.19,2.28,2.28,0,0,1-2.22,1.82,2.4,2.4,0,0,1-.46,0A2.28,2.28,0,0,1,71,68.34a16.27,16.27,0,1,0-32.21-3.28A16.14,16.14,0,0,0,46.66,79a2.28,2.28,0,0,1,1,1.4,2.29,2.29,0,0,1-2.21,2.82Z"></path><path class="a" d="M55.06,39.41a2.27,2.27,0,0,1-2.27-2.27V21.91a2.27,2.27,0,1,1,4.54,0V37.14A2.27,2.27,0,0,1,55.06,39.41Z"></path><path class="a" d="M35.32,47.59a2.26,2.26,0,0,1-1.61-.67L22.94,36.15a2.27,2.27,0,1,1,3.22-3.21L36.93,43.71a2.28,2.28,0,0,1-1.61,3.88Z"></path><path class="a" d="M11.91,67.33a2.27,2.27,0,0,1,0-4.54H27.14a2.27,2.27,0,1,1,0,4.54Z"></path><path class="a" d="M83,67.33a2.27,2.27,0,0,1,0-4.54H98.21a2.27,2.27,0,1,1,0,4.54Z"></path><path class="a" d="M24.55,97.84A2.28,2.28,0,0,1,22.94,94L33.71,83.19a2.29,2.29,0,0,1,3.22,0,2.29,2.29,0,0,1,0,3.22L26.16,97.17A2.26,2.26,0,0,1,24.55,97.84Z"></path><path class="a" d="M74.8,47.59a2.28,2.28,0,0,1-1.61-3.88L84,32.94a2.26,2.26,0,0,1,1.61-.67,2.27,2.27,0,0,1,1.61,3.88L76.41,46.92A2.26,2.26,0,0,1,74.8,47.59Z"></path></svg>