<svg xmlns="http://www.w3.org/2000/svg" viewBox="0 0 180 180"><defs><style>.a{fill:#1581b3;}</style></defs><path class="a" d="M78.66,74.23a2.27,2.27,0,1,1,0-4.54H99.42l13.23-22.81a.23.23,0,0,0-.07-.07c-.31-.34-.47-.53-.63-.72l-.14-.19c-.16-.22-.29-.4-.41-.59l-.17-.28-.31-.56-.14-.3q-.14-.29-.24-.57l-.13-.36c-.07-.2-.12-.4-.18-.6l-.08-.35c-.05-.21-.08-.42-.12-.64l1-.45-1,.11c0-.33,0-.67,0-1a9.33,9.33,0,1,1,9.33,9.33c-.32,0-.63,0-.94-.05s-.5-.07-.75-.11-.71-.16-1-.25L102.69,73.1a2.27,2.27,0,0,1-2,1.13Zm40.6-38.72A4.79,4.79,0,1,0,124,40.3,4.8,4.8,0,0,0,119.26,35.51Z"></path><path class="a" d="M79.56,149A3.54,3.54,0,0,1,76,145.49V140a9.48,9.48,0,0,0-6.26-9c-1-.33-1.93-.7-2.87-1.11a9,9,0,0,0-3.57-.72A9.87,9.87,0,0,0,56.42,132l-3.79,3.79a3.55,3.55,0,0,1-5,0l-8.13-8.12a3.55,3.55,0,0,1,0-5l3.12-3.12a9.4,9.4,0,0,0,1.9-10.82c-.53-1.06-1-2.16-1.45-3.26a9.65,9.65,0,0,0-8.94-6.18H29.82a3.54,3.54,0,0,1-3.54-3.53V84.26a3.54,3.54,0,0,1,3.54-3.53h3.57a9.73,9.73,0,0,0,9.08-6.57c.41-1.17.88-2.33,1.39-3.46A9.65,9.65,0,0,0,42,59.81l-2.5-2.49a3.54,3.54,0,0,1,0-5l8.11-8.11a3.6,3.6,0,0,1,5,0l2.46,2.45a9.43,9.43,0,0,0,6.72,2.78A10.12,10.12,0,0,0,66,48.51c1.12-.51,2.29-1,3.48-1.41A9.72,9.72,0,0,0,76,38V34.51A3.54,3.54,0,0,1,79.56,31H91.05a3.54,3.54,0,0,1,3.54,3.54v4.22a9.62,9.62,0,0,0,6.18,8.94c1,.4,2,.85,3,1.33a2.27,2.27,0,1,1-2,4.09c-.89-.43-1.8-.83-2.71-1.2a14.14,14.14,0,0,1-9-13.16V35.51H80.57V38A14.26,14.26,0,0,1,71,51.38c-1,.38-2.11.8-3.12,1.27A14.68,14.68,0,0,1,61.8,54a14,14,0,0,1-9.93-4.11l-1.74-1.75-6.7,6.71,1.78,1.76a14.15,14.15,0,0,1,2.79,16c-.46,1-.88,2.06-1.24,3.1a14.3,14.3,0,0,1-13.37,9.6H30.82v9.47h3.31a14.17,14.17,0,0,1,13.17,9c.39,1,.83,2,1.3,2.91a14,14,0,0,1-2.75,16.06l-2.43,2.44,6.7,6.68,3.08-3.08a14.41,14.41,0,0,1,10.12-4.19,13.38,13.38,0,0,1,5.36,1.09c.85.36,1.71.69,2.57,1A14,14,0,0,1,80.57,140v4.54h9.48v-5.24a14.06,14.06,0,0,1,8.81-13.07c.7-.28,1.4-.57,2.09-.89.37-.16.73-.31,1.1-.45a2.27,2.27,0,1,1,1.54,4.28c-.26.09-.51.2-.75.31-.76.34-1.54.68-2.33,1a9.48,9.48,0,0,0-5.91,8.84v6.24A3.54,3.54,0,0,1,91.05,149Z"></path><path class="a" d="M84.37,120.09a31.52,31.52,0,0,1-14.65-3.66A31.28,31.28,0,0,1,58.5,106.27,31.06,31.06,0,0,1,53.27,89,31.48,31.48,0,0,1,57.66,73,31.22,31.22,0,0,1,68.34,62.35a31.22,31.22,0,0,1,16-4.45A31.21,31.21,0,0,1,98,61a2.27,2.27,0,0,1-1,4.32,2.25,2.25,0,0,1-1-.23,26.51,26.51,0,0,0-11.62-2.65,26.52,26.52,0,0,0-13.66,3.79,26.71,26.71,0,0,0-9.13,9.14,26.66,26.66,0,0,0-2.7,21,26.34,26.34,0,0,0,3.42,7.37,26.7,26.7,0,0,0,9.58,8.68,26.8,26.8,0,0,0,12.49,3.12,26.48,26.48,0,0,0,7.33-1A25.39,25.39,0,0,0,96,112.88a2.36,2.36,0,0,1,1-.23,2.28,2.28,0,0,1,2.15,3A2.3,2.3,0,0,1,98,117a31.2,31.2,0,0,1-13.59,3.12Z"></path><path class="a" d="M66.27,85.59a2.28,2.28,0,0,1,0-4.55h39.4l9.79-16.87a2.26,2.26,0,0,1,2-1.13h17.93a9.3,9.3,0,0,1,4.18-5.68,9.88,9.88,0,0,1,1.46-.73,11.17,11.17,0,0,1,1.64-.48,10.93,10.93,0,0,1,1.76-.17,9.33,9.33,0,1,1,0,18.66,9.22,9.22,0,0,1-1.59-.14,9.09,9.09,0,0,1-1.6-.43,10.06,10.06,0,0,1-1.52-.71,10.24,10.24,0,0,1-1.37-1,9.38,9.38,0,0,1-3-4.8H118.73l-9.79,16.88a2.6,2.6,0,0,1-.33.43,2.15,2.15,0,0,1-.67.47,2.4,2.4,0,0,1-1,.23H66.27Zm78.12-25.06a4.79,4.79,0,1,0,4.79,4.78A4.79,4.79,0,0,0,144.39,60.53Z"></path><path class="a" d="M137.38,104a10.2,10.2,0,0,1-1.58-.14,9,9,0,0,1-1.61-.43,10.41,10.41,0,0,1-1.51-.71,10.24,10.24,0,0,1-1.37-1,9.46,9.46,0,0,1-3-4.8H66.27a2.27,2.27,0,0,1,0-4.54h62.07a9.31,9.31,0,0,1,2.92-4.75,8.54,8.54,0,0,1,1.27-.93A8.25,8.25,0,0,1,134,86a9.13,9.13,0,0,1,3.39-.65,9.33,9.33,0,1,1,0,18.66Zm0-14.11a4.79,4.79,0,1,0,4.79,4.78A4.78,4.78,0,0,0,137.38,89.89Z"></path><path class="a" d="M121.51,139.75a9.34,9.34,0,0,1-9.33-9.33,9.51,9.51,0,0,1,.06-1.08l.05-.33c0-.25.08-.49.14-.74l.09-.33a7.37,7.37,0,0,1,.23-.71l1,.09-.93-.38c.13-.3.26-.61.42-.9a9.37,9.37,0,0,1,.57-.94c.28-.37.46-.6.65-.82l.16-.18c.19-.2.39-.4.6-.59l.23-.2-8.71-15H78.65a2.28,2.28,0,0,1,0-4.55h29.43a2.29,2.29,0,0,1,2,1.13l9.53,16.42.68-.12a8.69,8.69,0,0,1,1.26-.09,9.33,9.33,0,1,1,0,18.66Zm0-14.12a4.79,4.79,0,1,0,4.78,4.79A4.8,4.8,0,0,0,121.51,125.63Z"></path></svg>