<svg xmlns="http://www.w3.org/2000/svg" viewBox="0 0 180 180"><defs><style>.a{fill:#1581b3;}</style></defs><path class="a" d="M152.47,21.29h-15.1V34.61H63.7a11,11,0,0,0-11,11V49h4.71V45.58a6.26,6.26,0,0,1,6.26-6.26h73.67v92.77h15.1a11,11,0,0,1,0,21.92H63.7a6.28,6.28,0,0,1-6.26-6.27v-3.46H52.73v3.46a11,11,0,0,0,11,11h88.77A15.67,15.67,0,0,0,168.12,143V37A15.68,15.68,0,0,0,152.47,21.29Zm10.94,110.56a15.64,15.64,0,0,0-10.94-4.47H142.08V26h10.39a11,11,0,0,1,10.94,11Z"></path><path class="a" d="M63.23,139.86H46.93V122.5a26.12,26.12,0,0,1-4.35-1.81L30.31,133,18.77,121.43l12.28-12.27a27.43,27.43,0,0,1-1.82-4.35H11.88V88.51H29.23a27,27,0,0,1,1.82-4.35L18.77,71.88,30.31,60.35,42.58,72.62a27.38,27.38,0,0,1,4.35-1.81V53.46h16.3V70.81a27.38,27.38,0,0,1,4.35,1.81L79.85,60.35,91.39,71.88,79.11,84.16a27,27,0,0,1,1.82,4.35H98.28v16.3H80.93a27.43,27.43,0,0,1-1.82,4.35l12.28,12.27L79.85,133,67.58,120.69a26.12,26.12,0,0,1-4.35,1.81Zm-11.59-4.71h6.88v-16.3l1.81-.43a21.75,21.75,0,0,0,6.41-2.67l1.58-1,11.53,11.53,4.88-4.88L73.2,109.9l1-1.58a22,22,0,0,0,2.66-6.41l.43-1.81h16.3V93.22H77.27l-.43-1.81A22,22,0,0,0,74.18,85l-1-1.58L84.73,71.88,79.85,67,68.32,78.54l-1.58-1a22,22,0,0,0-6.41-2.67l-1.81-.42V58.17H51.64v16.3l-1.81.42a22,22,0,0,0-6.41,2.67l-1.58,1L30.31,67l-4.88,4.87L37,83.42,36,85a22,22,0,0,0-2.66,6.41l-.43,1.81H16.59v6.88h16.3l.43,1.81A22,22,0,0,0,36,108.32l1,1.58L25.43,121.43l4.88,4.88,11.53-11.53,1.58,1a21.75,21.75,0,0,0,6.41,2.67l1.81.43Zm3.44-22.41a16.36,16.36,0,0,1-5.47-.95c-.53-.21-1-.38-1.38-.59a16,16,0,0,1-7.72-7.76,12.1,12.1,0,0,1-.55-1.3,16.08,16.08,0,0,1-1-5.48,15.91,15.91,0,0,1,1-5.5,12.24,12.24,0,0,1,.55-1.34,16,16,0,0,1,7.76-7.73,11,11,0,0,1,1.34-.55,16.12,16.12,0,0,1,11,0,10.42,10.42,0,0,1,1.33.55,16,16,0,0,1,7.73,7.76c.17.35.35.78.52,1.21a16.28,16.28,0,0,1,0,11.07l0,.07c-.18.44-.35.87-.56,1.3a16,16,0,0,1-7.75,7.71c-.37.18-.79.36-1.23.53A16.42,16.42,0,0,1,55.08,112.74Zm0-27.45a11.08,11.08,0,0,0-3.87.69,6.56,6.56,0,0,0-.87.35,11.33,11.33,0,0,0-5.56,5.53,7.05,7.05,0,0,0-.37.89,11.29,11.29,0,0,0,0,7.8,8.55,8.55,0,0,0,.35.86A11.39,11.39,0,0,0,50.28,107c.35.17.65.29.95.41a11.8,11.8,0,0,0,7.76,0c.24-.1.54-.22.84-.37a11.33,11.33,0,0,0,5.55-5.52c.17-.35.29-.63.4-.92a11.77,11.77,0,0,0,.67-3.88,11.64,11.64,0,0,0-.68-3.9,7.2,7.2,0,0,0-.36-.83,11.35,11.35,0,0,0-5.53-5.57A7.52,7.52,0,0,0,59,86,11.31,11.31,0,0,0,55.08,85.29Z"></path><path class="a" d="M89.79,146.06,87,142.27a54.93,54.93,0,0,0,6.62-5.78L97,139.77A58.88,58.88,0,0,1,89.79,146.06Zm14.68-15.74-4-2.53a53.41,53.41,0,0,0,4.09-7.78l4.33,1.84A57.92,57.92,0,0,1,104.47,130.32Zm8-20-4.62-.91a54.27,54.27,0,0,0,1-8.74l4.72-.07v.23A60.08,60.08,0,0,1,112.47,110.33ZM108,89.41a54.27,54.27,0,0,0-2.24-8.5l4.43-1.57a58,58,0,0,1,2.45,9.24Zm-7-18.5a54.74,54.74,0,0,0-5.18-7.11l3.57-3.07a59.41,59.41,0,0,1,5.63,7.73ZM87.8,56.18a54.77,54.77,0,0,0-7.39-4.77l2.23-4.15a58.2,58.2,0,0,1,8,5.19Z"></path></svg>