<svg xmlns="http://www.w3.org/2000/svg" viewBox="0 0 206.96 206.96"><defs><style>.a{fill:#0880b2;}.b{fill:#67686a;}</style></defs><path class="a" d="M104.71,0A103.48,103.48,0,1,0,207,104.71,103.48,103.48,0,0,0,104.71,0Zm-2.38,199.93a96.46,96.46,0,1,1,97.61-95.31A96.46,96.46,0,0,1,102.33,199.94Z"></path><rect class="a" x="26.49" y="86.93" width="8.07" height="35.26"></rect><polygon class="a" points="45.39 104.56 57.37 122.2 48.4 122.2 36.42 104.56 48.4 86.93 57.37 86.93 45.39 104.56"></polygon><path class="a" d="M57.7,103.06a6.8,6.8,0,0,1,2-5,6.71,6.71,0,0,1,5-2H77.32a6.87,6.87,0,0,1,7.06,7v9H65.25v1.53c0,2,.76,2.75,2.75,2.75H84.38v5.81H64.73a6.72,6.72,0,0,1-5-2,6.8,6.8,0,0,1-2-5Zm7.55,3.52H76.83v-2c0-2-.74-2.75-2.78-2.75H68c-2,0-2.75.76-2.75,2.75Z"></path><path class="a" d="M113.93,96l-9.58,25.19c-1.87,5-4.75,7.55-9.57,7.55H84.38V122.2H93a2.41,2.41,0,0,0,2.25-1.61,2.79,2.79,0,0,0,.26-1.24L85.06,96H93.6l6.48,16.32L105.59,96Z"></path><polygon class="b" points="137.58 108.1 137.58 96 129.51 96 129.51 108.1 121.42 108.1 129.88 86.93 121.13 86.93 110.49 115.14 129.51 115.14 129.51 122.2 137.58 122.2 137.58 115.14 144.63 115.14 144.63 108.1 137.58 108.1"></polygon><path class="b" d="M169.54,102.3,155.45,100c-2-.32-2.77-1-2.77-2.78v-.49c0-2,.78-2.78,2.77-2.78h20.91V86.93H153a7.78,7.78,0,0,0-8.31,8.31V99c0,4.31,2.75,7,7.79,7.8l14.12,2.28c2,.32,2.75,1,2.75,2.75v.52c0,2-.76,2.76-2.75,2.76H144.64v7.06h24.42a7.78,7.78,0,0,0,8.3-8.32v-3.79c0-4.3-2.77-7-7.82-7.79"></path><path class="b" d="M177.36,82.57a4.3,4.3,0,0,1,4.37-4.35,4.22,4.22,0,0,1,4.35,4.35,4.29,4.29,0,0,1-4.35,4.36,4.24,4.24,0,0,1-4.37-4.36m8,0A3.47,3.47,0,0,0,181.73,79a3.55,3.55,0,0,0-3.61,3.59,3.6,3.6,0,1,0,7.2,0m-3.59-2.19c1.14,0,1.78.49,1.78,1.41a1.28,1.28,0,0,1-.88,1.23l1.12,1.63h-.9l-1-1.49a1,1,0,0,1-.28,0h-.68v1.47h-.73V80.38Zm0,2.11c.71,0,1.06-.23,1.06-.7s-.33-.69-1.06-.69h-.8v1.39Z"></path></svg>