<svg xmlns="http://www.w3.org/2000/svg" viewBox="0 0 242.31 76.71"><defs><style>.a{fill:#0880b2;}.b{fill:#67686a;}</style></defs><rect class="a" y="13.23" width="12.25" height="53.54"></rect><polygon class="a" points="28.71 40 46.89 66.77 33.26 66.77 15.08 40 33.26 13.23 46.89 13.23 28.71 40"></polygon><path class="a" d="M47.39,37.72a10.36,10.36,0,0,1,3.06-7.65A10.21,10.21,0,0,1,58.07,27H77.19A10.47,10.47,0,0,1,87.9,37.72V51.46H58.85v2.32C58.85,56.8,60,58,63,58H87.9v8.81H58.07a10.24,10.24,0,0,1-7.62-3.06,10.39,10.39,0,0,1-3.06-7.66Zm11.46,5.34H76.44V40c0-3-1.12-4.18-4.22-4.18H63c-3,0-4.18,1.15-4.18,4.18Z"></path><path class="a" d="M132.77,27,118.22,65.24c-2.84,7.66-7.21,11.47-14.53,11.47H87.9V66.77H101a3.67,3.67,0,0,0,3.42-2.44,4.37,4.37,0,0,0,.4-1.89L88.92,27h13l9.84,24.78L120.1,27Z"></path><polygon class="b" points="168.67 45.37 168.67 27 156.42 27 156.42 45.37 144.14 45.37 156.99 13.22 143.7 13.22 127.54 56.05 156.42 56.05 156.42 66.77 168.67 66.77 168.67 56.05 179.38 56.05 179.38 45.37 168.67 45.37"></polygon><path class="b" d="M217.2,36.56l-21.39-3.43c-3-.49-4.21-1.57-4.21-4.23v-.74c0-3.1,1.19-4.22,4.21-4.22h31.74V13.22H192a12.46,12.46,0,0,0-9.18,3.44,12.4,12.4,0,0,0-3.43,9.19v5.74c0,6.54,4.18,10.61,11.83,11.84l21.44,3.47c3,.49,4.17,1.54,4.17,4.18v.79c0,3-1.15,4.18-4.17,4.18H179.39V66.77h37.07a11.83,11.83,0,0,0,12.62-12.62V48.39c0-6.53-4.22-10.59-11.88-11.83"></path><path class="b" d="M229.08,6.6A6.51,6.51,0,0,1,235.71,0a6.4,6.4,0,0,1,6.6,6.6,6.52,6.52,0,0,1-6.6,6.63,6.45,6.45,0,0,1-6.63-6.63m12.08,0a5.27,5.27,0,0,0-5.45-5.45,5.39,5.39,0,0,0-5.49,5.45,5.47,5.47,0,1,0,10.94,0m-5.45-3.32c1.73,0,2.69.75,2.69,2.14a1.91,1.91,0,0,1-1.33,1.86l1.7,2.48h-1.36L235.89,7.5a1.52,1.52,0,0,1-.43,0h-1V9.76h-1.12V3.28Zm-.07,3.2c1.09,0,1.62-.35,1.62-1.06s-.5-1-1.62-1h-1.2V6.48Z"></path></svg>