<svg xmlns="http://www.w3.org/2000/svg" viewBox="0 0 469.56 281.99"><defs><style>.a{fill:#bbb;}</style></defs><polygon class="a" points="206.51 236.96 203.23 236.96 202.12 239.38 204.01 241.87 205.11 239.52 213.64 250.57 218.66 237.01 215.94 237.01 212.92 245.16 206.51 236.96 206.51 236.96"></polygon><polygon class="a" points="206.29 250.37 209.57 250.37 210.59 247.81 208.7 245.32 207.69 247.81 199.15 236.76 194.13 250.32 196.86 250.32 199.87 242.18 206.29 250.37 206.29 250.37"></polygon><polygon class="a" points="216.14 250.37 227.45 250.37 228.31 248.05 219.72 248.05 220.95 244.73 226.94 244.73 227.8 242.4 221.81 242.4 222.91 239.42 231.51 239.42 232.37 237.09 221.05 237.09 219.09 242.4 217.33 242.4 216.47 244.73 218.23 244.73 216.14 250.37 216.14 250.37"></polygon><polygon class="a" points="240.7 250.65 245.71 237.09 242.99 237.09 239.98 245.23 233.58 236.81 228.57 250.37 231.29 250.37 234.3 242.23 240.7 250.65 240.7 250.65"></polygon><path class="a" d="M165.06,248.14a6.54,6.54,0,0,0,5.47,2.45c3.39,0,7.08-1.67,8-4.44,1.88-5.52-8.65-2.54-7.63-5.52.27-.8,1.45-1.8,3.71-1.8a4,4,0,0,1,3.45,1.59l2.57-1.63c-1-1.33-2.73-2-5.18-2-3.35,0-6.65,1.63-7.46,4-1.84,5.41,8.64,2.56,7.63,5.52-.43,1.27-2.12,2-4.2,2a4.43,4.43,0,0,1-3.75-1.8l-2.63,1.67Z"></path><polygon class="a" points="243.1 250.4 246 250.4 248.09 244.75 249.9 244.75 252.11 250.4 255.59 250.4 252.66 243.11 260.3 237.1 256.66 237.1 249.82 242.42 248.95 242.42 250.92 237.1 248.02 237.1 243.1 250.4 243.1 250.4"></polygon><path class="a" d="M275.4,245.7l3.93-4.77.37,4.77Zm-6.91,4.7h3.06l2.05-2.5h6.25l.21,2.5H283l-1.33-13.3h-6.11l-.81,2.2h2.89l-9.14,11.1Z"></path><polygon class="a" points="283.41 250.4 286.34 250.4 288.43 244.75 294.23 244.75 295.09 242.42 289.3 242.42 290.4 239.43 298.8 239.43 299.67 237.1 288.33 237.1 286.37 242.42 284.61 242.42 283.74 244.75 285.51 244.75 283.41 250.4 283.41 250.4"></polygon><polygon class="a" points="295.75 250.4 298.65 250.4 302.71 239.43 307.04 239.43 307.9 237.1 296.52 237.1 295.66 239.43 299.81 239.43 295.75 250.4 295.75 250.4"></polygon><path class="a" d="M263.53,239.43H267c1.74,0,2.59,1.44,1.86,2.22-1,1.09-3.25,1.09-3.94,1.09h-2.7l1.29-3.31Zm-7,11h2.9l1.95-5.42h1.95l2.35,5.42h3.43l-2.63-5.48a5.45,5.45,0,0,0,5.23-3.27,3.58,3.58,0,0,0-3.66-4.55h-6.6l-4.92,13.3Z"></path><path class="a" d="M179.66,243.63c-1.46,4,1,7,5.44,7s9.18-3.08,10.64-7-1-7-5.44-7-9.18,3.07-10.64,7Zm3.12,0a7.57,7.57,0,0,1,6.59-4.49c2.6,0,4.21,2,3.28,4.49a7.61,7.61,0,0,1-6.6,4.49c-2.59,0-4.21-2-3.27-4.49Z"></path><path class="a" d="M193.87,230.87v-8.64h6.25v1H195v2.64h4.78v1H195v2.94h5.31v1Z"></path><path class="a" d="M201.77,223.45v-1.22h1.06v1.22Zm0,7.42v-6.26h1.06v6.26Z"></path><path class="a" d="M204.44,230.87v-6.26h1v.89a2.24,2.24,0,0,1,2-1,2.68,2.68,0,0,1,1,.2,1.6,1.6,0,0,1,.71.54,2,2,0,0,1,.33.78,6,6,0,0,1,.06,1v3.85h-1.06v-3.81a3,3,0,0,0-.12-1,1.08,1.08,0,0,0-.44-.51,1.38,1.38,0,0,0-.74-.19,1.71,1.71,0,0,0-1.17.43,2.12,2.12,0,0,0-.49,1.63v3.42Z"></path><path class="a" d="M215.44,228.85l1.1.14a2.63,2.63,0,0,1-1,1.49,2.92,2.92,0,0,1-1.79.53,2.88,2.88,0,0,1-2.18-.84,3.31,3.31,0,0,1-.8-2.38,3.47,3.47,0,0,1,.81-2.45,2.75,2.75,0,0,1,2.11-.87,2.66,2.66,0,0,1,2.05.85,3.4,3.4,0,0,1,.8,2.41c0,.06,0,.15,0,.28H211.9a2.34,2.34,0,0,0,.59,1.58,1.69,1.69,0,0,0,1.3.55,1.61,1.61,0,0,0,1-.31A2,2,0,0,0,215.44,228.85ZM212,227.14h3.5a2.17,2.17,0,0,0-.4-1.19,1.63,1.63,0,0,0-1.32-.61,1.67,1.67,0,0,0-1.23.49A2,2,0,0,0,212,227.14Z"></path><path class="a" d="M221.33,230.87v-8.64h1.72l2,6.12c.19.57.33,1,.42,1.28.09-.32.25-.78.46-1.39l2.07-6h1.53v8.64h-1.1v-7.23L226,230.87h-1l-2.5-7.36v7.36Z"></path><path class="a" d="M235.37,230.1a4,4,0,0,1-1.14.71,3.42,3.42,0,0,1-1.17.2,2.3,2.3,0,0,1-1.58-.5,1.77,1.77,0,0,1-.35-2.13,1.8,1.8,0,0,1,.55-.61,2.78,2.78,0,0,1,.76-.35,8.65,8.65,0,0,1,.95-.16,9.73,9.73,0,0,0,1.89-.36c0-.15,0-.24,0-.28a1.16,1.16,0,0,0-.3-.91,1.8,1.8,0,0,0-1.21-.36,1.86,1.86,0,0,0-1.11.26,1.59,1.59,0,0,0-.53.93l-1-.14a2.56,2.56,0,0,1,.46-1.08,2.11,2.11,0,0,1,.94-.63,4.11,4.11,0,0,1,1.42-.22,3.64,3.64,0,0,1,1.3.19,1.66,1.66,0,0,1,.74.47,1.6,1.6,0,0,1,.33.72,5.59,5.59,0,0,1,0,1v1.42a16,16,0,0,0,.07,1.87,2.6,2.6,0,0,0,.27.75h-1.11A2.23,2.23,0,0,1,235.37,230.1Zm-.09-2.37a8.26,8.26,0,0,1-1.73.4,3.81,3.81,0,0,0-.93.21.91.91,0,0,0-.42.35.88.88,0,0,0-.14.5.9.9,0,0,0,.32.71,1.35,1.35,0,0,0,.94.28,2.18,2.18,0,0,0,1.09-.27,1.64,1.64,0,0,0,.7-.73,2.62,2.62,0,0,0,.17-1.06Z"></path><path class="a" d="M238,230.87v-6.26h.95v.95a2.44,2.44,0,0,1,.68-.88,1.16,1.16,0,0,1,.68-.21,2.07,2.07,0,0,1,1.09.34l-.37,1a1.56,1.56,0,0,0-.78-.23,1,1,0,0,0-.62.21,1.15,1.15,0,0,0-.4.58,4.42,4.42,0,0,0-.17,1.24v3.28Z"></path><path class="a" d="M242,230.87v-8.64h1.06v4.93l2.52-2.55H247l-2.39,2.32,2.63,3.94H245.9l-2.07-3.2-.75.72v2.48Z"></path><path class="a" d="M252.34,228.85l1.1.14a2.74,2.74,0,0,1-1,1.49,2.94,2.94,0,0,1-1.8.53,2.89,2.89,0,0,1-2.18-.84,3.36,3.36,0,0,1-.8-2.38,3.47,3.47,0,0,1,.81-2.45,2.77,2.77,0,0,1,2.11-.87,2.7,2.7,0,0,1,2.06.85,3.4,3.4,0,0,1,.79,2.41V228H248.8a2.39,2.39,0,0,0,.58,1.58,1.73,1.73,0,0,0,1.31.55,1.56,1.56,0,0,0,1-.31A2,2,0,0,0,252.34,228.85Zm-3.48-1.71h3.49A2.17,2.17,0,0,0,252,226a1.63,1.63,0,0,0-1.31-.61,1.67,1.67,0,0,0-1.23.49A1.88,1.88,0,0,0,248.86,227.14Z"></path><path class="a" d="M259.86,230.87l-2.38-6.26h1.12l1.34,3.75c.15.4.28.82.41,1.26.09-.33.22-.73.39-1.19l1.39-3.82h1.09l-2.37,6.26Z"></path><path class="a" d="M263.76,227.74a3.25,3.25,0,0,1,1-2.58,2.94,2.94,0,0,1,2-.69,2.82,2.82,0,0,1,2.11.84,3.23,3.23,0,0,1,.82,2.34,4.14,4.14,0,0,1-.36,1.9,2.62,2.62,0,0,1-1.06,1.08,3.11,3.11,0,0,1-1.51.38,2.8,2.8,0,0,1-2.12-.84A3.32,3.32,0,0,1,263.76,227.74Zm1.09,0a2.67,2.67,0,0,0,.53,1.8,1.75,1.75,0,0,0,2.64,0,2.79,2.79,0,0,0,.52-1.84,2.61,2.61,0,0,0-.53-1.76,1.7,1.7,0,0,0-1.31-.59,1.67,1.67,0,0,0-1.32.59A2.67,2.67,0,0,0,264.85,227.74Z"></path><path class="a" d="M270.87,230.87v-6.26h1v.89a2.24,2.24,0,0,1,2-1,2.71,2.71,0,0,1,1,.2,1.6,1.6,0,0,1,.71.54,2,2,0,0,1,.33.78,6,6,0,0,1,.06,1v3.85H274.9v-3.81a3,3,0,0,0-.12-1,1.08,1.08,0,0,0-.44-.51,1.38,1.38,0,0,0-.74-.19,1.68,1.68,0,0,0-1.17.43,2.11,2.11,0,0,0-.5,1.63v3.42Z"></path><path class="a" d="M177.79,142.87l-4.18-1.76c-4.07-1.76-6.08-3.73-6.08-6.74s2.82-5.29,7-5.29c2.87,0,5.68,1.16,8.55,3.42l2.31-3.11a16.66,16.66,0,0,0-10.81-4,12.13,12.13,0,0,0-8.15,2.67,8.22,8.22,0,0,0-3.12,6.44c0,4.47,2.67,7.84,7.95,10.06l4.53,1.86c4.42,1.81,6.18,3.87,6.18,6.69,0,3.47-3.17,5.58-7.19,5.58-3.17,0-6.44-1.41-9.91-4.28l-2.26,3.07a17.82,17.82,0,0,0,12.12,4.93,12.73,12.73,0,0,0,8.3-2.66,8.36,8.36,0,0,0,3.22-6.79C186.24,148.55,183.42,145.23,177.79,142.87Z"></path><path class="a" d="M206.76,125.36A18.29,18.29,0,0,0,188.15,144a17.87,17.87,0,0,0,5.38,13.23,19.22,19.22,0,0,0,26.36,0,18.54,18.54,0,0,0-13.13-31.84Zm10.16,29.07a14.62,14.62,0,0,1-20.47-.1,14.55,14.55,0,0,1-4-10.41,14.33,14.33,0,0,1,4.08-10.51,13.74,13.74,0,0,1,10.21-4.18A13.54,13.54,0,0,1,217,133.46a14.62,14.62,0,0,1,4,10.46A14.13,14.13,0,0,1,216.92,154.43Z"></path><path class="a" d="M219.65,122.12a18.26,18.26,0,0,0,13.18-5.23,19,19,0,0,0,.1-26.51,17.9,17.9,0,0,0-13.23-5.33,18.29,18.29,0,0,0-18.61,18.61,17.87,17.87,0,0,0,5.38,13.23A18.35,18.35,0,0,0,219.65,122.12Zm-10.21-29a13.77,13.77,0,0,1,10.21-4.18A13.51,13.51,0,0,1,230,93.15a14.61,14.61,0,0,1,4,10.46,14.14,14.14,0,0,1-4.13,10.51,14.62,14.62,0,0,1-20.47-.1,14.56,14.56,0,0,1-4-10.41A14.29,14.29,0,0,1,209.44,93.1Z"></path><path class="a" d="M277,116.89a19.22,19.22,0,0,0,26.36,0,19,19,0,0,0,.1-26.51,17.9,17.9,0,0,0-13.23-5.33,18.29,18.29,0,0,0-18.61,18.61A17.87,17.87,0,0,0,277,116.89Zm3-23.79a13.74,13.74,0,0,1,10.21-4.18,13.54,13.54,0,0,1,10.31,4.23,14.6,14.6,0,0,1,4,10.46,14.13,14.13,0,0,1-4.12,10.51,14.62,14.62,0,0,1-20.47-.1,14.57,14.57,0,0,1-4-10.41A14.3,14.3,0,0,1,279.93,93.1Z"></path><polygon class="a" points="231.45 126.07 227.32 126.07 227.32 161.78 246.94 161.78 248.22 158.06 231.45 158.06 231.45 126.07"></polygon><rect class="a" x="193.58" y="85.78" width="4.47" height="36.74"></rect><polygon class="a" points="167.07 107.34 169.1 105.19 182.59 122.52 188.15 122.52 171.92 102.2 187.4 85.78 181.84 85.78 167.07 101.45 167.07 85.78 162.6 85.78 162.6 122.52 167.07 122.52 167.07 107.34"></polygon><path class="a" d="M266.51,125.36h-4.28l-12.12,36.13h4.29l2.93-8.76h14.88l2.94,8.76h4.29l-12.12-36.13Zm-8,24,6.3-18.79,6.3,18.79Z"></path><polygon class="a" points="252.16 121.29 256.63 121.29 256.63 89.94 273.93 89.94 273.93 86.03 234.87 86.03 234.87 89.94 252.16 89.94 252.16 121.29"></polygon><path class="a" d="M308.17,136.05a10.68,10.68,0,0,0-10.68-10.69H282.16v36.42h3.93V146.73H295l7.72,15.05h4.12L299,146.61A10.65,10.65,0,0,0,308.17,136.05Zm-10.68,6.81h-11.4V129.23h11.4a6.82,6.82,0,0,1,0,13.63Z"></path><path class="a" d="M234.78,215.35a92,92,0,1,1,92-92A92.1,92.1,0,0,1,234.78,215.35Zm0-182.56a90.56,90.56,0,1,0,90.56,90.55A90.65,90.65,0,0,0,234.78,32.79Z"></path></svg>