<svg width="315" height="76" viewBox="0 0 315 76" fill="none" xmlns="http://www.w3.org/2000/svg">
<path d="M145.54 4.27002H132.53V36.27V47.14H145.54H170.02L178.39 36.27H145.54V4.27002Z" fill="#BBBBBB"/>
<path d="M242.14 36.2699L221.7 9.72994L219.2 6.47994C218.64 5.74045 217.917 5.14069 217.087 4.72773C216.257 4.31477 215.342 4.09985 214.415 4.09985C213.488 4.09985 212.573 4.31477 211.743 4.72773C210.913 5.14069 210.189 5.74045 209.63 6.47994L207.13 9.72994L178.36 47.1399H192.92L214.42 19.1999L227.55 36.2699H208.96L200.59 47.1399H250.51L246.45 41.9099L242.14 36.2699Z" fill="#BBBBBB"/>
<path d="M94.88 0C88.3779 0.00462166 82.1194 2.47462 77.3666 6.91187C72.6139 11.3491 69.7205 17.4235 69.27 23.91H120.49C120.039 17.4235 117.146 11.3491 112.393 6.91187C107.641 2.47462 101.382 0.00462166 94.88 0Z" fill="#BBBBBB"/>
<path d="M94.88 51.41C101.379 51.4058 107.635 48.9385 112.387 44.5055C117.139 40.0724 120.035 34.003 120.49 27.52H69.27C69.7254 34.003 72.6209 40.0724 77.3731 44.5055C82.1253 48.9385 88.3811 51.4058 94.88 51.41ZM94.88 50.12C88.9506 50.0991 83.2306 47.9259 78.7831 44.0045C74.3356 40.083 71.4633 34.6801 70.7 28.8H119.09C118.322 34.6835 115.444 40.0881 110.991 44.0094C106.538 47.9307 100.813 50.1021 94.88 50.12Z" fill="#BBBBBB"/>
<path d="M299.22 47.1399H314.96L302.24 34.0399C308.24 31.5599 312.36 26.1199 312.36 19.8099C312.36 11.1499 304.56 4.11987 294.96 4.11987H263.39L254.39 15.1699H294.96C295.681 15.1153 296.405 15.2101 297.087 15.4484C297.77 15.6868 298.396 16.0634 298.926 16.5549C299.456 17.0464 299.879 17.642 300.168 18.3045C300.457 18.967 300.606 19.682 300.606 20.4049C300.606 21.1277 300.457 21.8428 300.168 22.5053C299.879 23.1678 299.456 23.7634 298.926 24.2548C298.396 24.7463 297.77 25.123 297.087 25.3613C296.405 25.5996 295.681 25.6945 294.96 25.6399H254.39V47.1499H267.33V35.4999H287.91L299.22 47.1399Z" fill="#BBBBBB"/>
<path d="M42.46 21.8298H16.14C15.6719 21.8875 15.1968 21.8451 14.7463 21.7053C14.2958 21.5656 13.8801 21.3318 13.5267 21.0193C13.1734 20.7068 12.8905 20.3229 12.6967 19.8928C12.5029 19.4628 12.4027 18.9965 12.4027 18.5248C12.4027 18.0531 12.5029 17.5868 12.6967 17.1568C12.8905 16.7267 13.1734 16.3428 13.5267 16.0303C13.8801 15.7178 14.2958 15.484 14.7463 15.3443C15.1968 15.2045 15.6719 15.1621 16.14 15.2198H47.57L56.17 4.5498H16.17C7.39 4.5498 0.269997 10.3598 0.269997 17.5498C0.269997 24.7398 7.39 30.5498 16.17 30.5498H42.49C42.9323 30.4734 43.386 30.4945 43.8193 30.6118C44.2526 30.7291 44.655 30.9396 44.9983 31.2287C45.3417 31.5179 45.6177 31.8785 45.8071 32.2855C45.9965 32.6925 46.0946 33.1359 46.0946 33.5848C46.0946 34.0337 45.9965 34.4771 45.8071 34.8841C45.6177 35.2911 45.3417 35.6518 44.9983 35.9409C44.655 36.23 44.2526 36.4406 43.8193 36.5578C43.386 36.6751 42.9323 36.6963 42.49 36.6198H8.61L0 47.2098H42.46C50.85 47.2098 57.65 41.5298 57.65 34.5298C57.65 27.5298 50.85 21.8298 42.46 21.8298Z" fill="#BBBBBB"/>
<path d="M113.46 70.65C113.527 71.3489 113.432 72.0539 113.185 72.7108C112.937 73.3678 112.542 73.9593 112.03 74.44C110.673 75.3215 109.062 75.7262 107.45 75.5899H101.11V58.39H107.42C108.846 58.2737 110.271 58.6247 111.48 59.39C111.918 59.8105 112.255 60.3253 112.464 60.8954C112.674 61.4654 112.751 62.0757 112.69 62.68C112.742 63.5785 112.537 64.4734 112.1 65.26C111.621 65.9193 110.903 66.3645 110.1 66.5C110.581 66.5311 111.052 66.6586 111.483 66.8751C111.914 67.0915 112.297 67.3925 112.61 67.76C113.214 68.5985 113.514 69.618 113.46 70.65ZM110.52 62.97C110.56 62.6071 110.52 62.2399 110.402 61.8943C110.285 61.5487 110.093 61.2331 109.84 60.97C109.124 60.5309 108.286 60.3345 107.45 60.41H103.45V65.79H107.45C108.291 65.8681 109.131 65.6331 109.81 65.13C110.072 64.8389 110.27 64.4966 110.392 64.1247C110.514 63.7528 110.558 63.3596 110.52 62.97ZM111.21 70.52C111.256 70.1208 111.203 69.7163 111.054 69.3429C110.906 68.9694 110.667 68.6386 110.36 68.38C109.469 67.9005 108.458 67.6886 107.45 67.77H103.45V73.51H107.45C108.465 73.5999 109.483 73.369 110.36 72.85C110.672 72.5539 110.912 72.1893 111.059 71.785C111.207 71.3807 111.258 70.9476 111.21 70.52Z" fill="#BBBBBB"/>
<path d="M126.93 58.3899H129.35L122.95 69.0599V75.5899H120.62V69.0599L114.07 58.3899H116.7L121.83 66.9799L126.93 58.3899Z" fill="#BBBBBB"/>
<path d="M147.24 58.3899V60.4999H141.53V75.5899H139.2V60.4999H133.49V58.3899H147.24Z" fill="#BBBBBB"/>
<path d="M161.04 73.3999V75.5899H149.62V58.3899H160.79V60.4999H151.96V65.7699H159.78V67.8299H151.96V73.3999H161.04Z" fill="#BBBBBB"/>
<path d="M166.31 75.5899H163.97V58.3899H166.31V65.7999H175.31V58.3899H177.64V75.5899H175.31V67.9099H166.31V75.5899Z" fill="#BBBBBB"/>
<path d="M195.7 58.3899V75.5899H193.3L183.78 62.1999V75.5899H181.59V58.3899H183.95L193.47 71.9699V58.3899H195.7Z" fill="#BBBBBB"/>
<path d="M214.21 66.9098C214.21 70.0398 213.62 72.2998 212.42 73.6898C211.22 75.0798 209.27 75.7698 206.56 75.7698C203.647 75.7698 201.647 75.1265 200.56 73.8398C199.473 72.5531 198.913 70.2432 198.88 66.9098C198.88 63.8032 199.483 61.5532 200.69 60.1598C201.897 58.7665 203.853 58.0698 206.56 58.0698C209.467 58.0698 211.467 58.7165 212.56 60.0098C213.7 61.3398 214.21 63.6398 214.21 66.9098ZM202.06 71.9098C202.395 72.5206 202.943 72.9868 203.6 73.2198C204.569 73.5259 205.585 73.6579 206.6 73.6098C208.6 73.6098 209.99 73.1198 210.77 72.1398C211.55 71.1598 211.923 69.4265 211.89 66.9398C211.904 65.9264 211.841 64.9135 211.7 63.9098C211.609 63.2376 211.406 62.5853 211.1 61.9798C210.768 61.3692 210.229 60.8975 209.58 60.6498C208.612 60.3355 207.596 60.2 206.58 60.2498C204.53 60.2498 203.13 60.7398 202.38 61.7298C201.63 62.7198 201.26 64.4598 201.26 66.9698C201.244 67.9932 201.307 69.0163 201.45 70.0298C201.535 70.6889 201.742 71.3265 202.06 71.9098Z" fill="#BBBBBB"/>
<path d="M233.64 58.3899V75.5899H231.44V62.0399L226.53 72.1599H224.53L219.62 62.0099V75.5899H217.42V58.3899H220.36L225.57 69.3899L230.81 58.3899H233.64Z" fill="#BBBBBB"/>
<path d="M238.3 75.5899H235.83L242.64 58.3899H245.05L251.78 75.5899H249.31L247.7 71.4499H239.83L238.3 75.5899ZM243.79 60.5299C243.61 61.1699 243.4 61.8499 243.15 62.5299C242.9 63.2099 242.65 63.9599 242.39 64.6699L240.64 69.3599H246.98L245.22 64.6699C244.85 63.6699 244.56 62.8499 244.35 62.2299C244.14 61.6099 243.96 61.0599 243.79 60.5299Z" fill="#BBBBBB"/>
<path d="M256.33 69.4199V75.5899H254V58.3899H259.84C262.28 58.3899 264.023 58.8066 265.07 59.6399C265.632 60.1611 266.067 60.8046 266.341 61.5207C266.615 62.2369 266.721 63.0064 266.65 63.7699C266.713 65.04 266.362 66.2964 265.65 67.3499C264.898 68.2879 263.833 68.9233 262.65 69.1399L267.15 75.5899H264.35L260.18 69.4199H256.33ZM264.33 63.7699C264.379 63.3018 264.313 62.829 264.139 62.3918C263.965 61.9546 263.687 61.5662 263.33 61.2599C262.292 60.6599 261.094 60.3945 259.9 60.4999H256.39V67.3599H259.9C261.1 67.4647 262.3 67.1655 263.31 66.5099C263.669 66.1563 263.943 65.7263 264.113 65.2519C264.283 64.7775 264.343 64.2709 264.29 63.7699H264.33Z" fill="#BBBBBB"/>
<path d="M276.47 66.7899L283.77 75.5899H280.77L274.47 67.9099H272.22V75.6199H269.88V58.4199H272.22V65.8499H274.47L280.64 58.4199H283.49L276.47 66.7899Z" fill="#BBBBBB"/>
<path d="M297.19 73.3999V75.5899H285.77V58.3899H296.94V60.4999H288.11V65.7699H295.92V67.8299H288.11V73.3999H297.19Z" fill="#BBBBBB"/>
<path d="M312.31 58.3899V60.4999H306.6V75.5899H304.27V60.4999H298.56V58.3899H312.31Z" fill="#BBBBBB"/>
</svg>
